# xmcd
#
# Track frame offsets: 
#        150
#        2255
#        28425
#        46015
#        73167
#        111129
#        130487
#        168920
#        204002
#        243784
#        260832
#
# Disc length: 3724 seconds
#
# Revision: 2
# Processed by: cddbd v1.5.2PL0 Copyright (c) Steve Scherf et al.
# Submitted via: ExactAudioCopy v1.0b1
#
DISCID=8e0e8a0b
DTITLE=Bugs Henderson and the Shuffle Kings - Henderson and Jones
DYEAR=1997
DGENRE=
TTITLE0=Welcome
TTITLE1=Crossroads
TTITLE2=Drug Store Blues
TTITLE3=Love Me
TTITLE4=Got My Mojo Working
TTITLE5=Big Roar
TTITLE6=Ain't Nobody's Bizness
TTITLE7=Texas Ballbuster
TTITLE8=West Side Of Life
TTITLE9=Crippled Gnat Bounce
TTITLE10=Audio Liner Notes
EXTD=
EXTT0=
EXTT1=
EXTT2=
EXTT3=
EXTT4=
EXTT5=
EXTT6=
EXTT7=
EXTT8=
EXTT9=
EXTT10=
PLAYORDER=
